<svg id="ePt65yqYjRI1" xmlns="http://www.w3.org/2000/svg" xmlns:xlink="http://www.w3.org/1999/xlink" viewBox="0 0 300 300" shape-rendering="geometricPrecision" text-rendering="geometricPrecision"><path id="ePt65yqYjRI2" d="M60.000002,123.665974C60.000002,123.665974,60.000002,123.665974,118.288494,84.809198C176.563183,123.665974,176.563183,123.665974,176.563183,123.665974C176.563183,123.665974,176.563183,191.665333,176.563183,191.665333C176.563183,191.665333,133.82282,191.665333,133.82282,191.665333C133.82282,191.665333,133.82282,166.308556,133.82282,152.808557C121.82282,152.808557,114.754168,152.808557,102.754168,152.808557C102.754168,166.308556,102.754168,191.665333,102.754168,191.665333Q60.000002,191.665333,60.000002,191.665333C60.000002,191.665333,60.000002,123.665974,60.000002,123.665974Z" transform="matrix(1.029977 0 0 1.029421 28.165572 2.695657)" fill="rgb(255,255,255)" stroke="none" stroke-width="0"/></svg>